STARTFONT 2.1
FONT -DEC-Gam-Bold-O-Normal--20-140-100-100-M-110-ISO8859-8
SIZE 14 100 100
FONTBOUNDINGBOX 14 18 0 -5

STARTPROPERTIES 26
FONTNAME_REGISTRY ""
FAMILY_NAME "Gam"
FOUNDRY "DEC"
WEIGHT_NAME "Bold"
SLANT "O"
SETWIDTH_NAME "Normal"
ADD_STYLE_NAME ""
PIXEL_SIZE 20
RESOLUTION_X 100
RESOLUTION_Y 100
SPACING "M"
AVERAGE_WIDTH 110
CHARSET_REGISTRY "ISO8859"
CHARSET_ENCODING "8"
CHARSET_COLLECTIONS "ASCII ISO8859-8 "
FULL_NAME "Gam Bold Oblique"
COPYRIGHT "Digital Israel"
CAP_HEIGHT 11
X_HEIGHT 9
_DEC_DEVICE_FONTNAMES "PS=Gam-BoldOblique-ISOLatinHebrew"
QUAD_WIDTH 11
POINT_SIZE 140
WEIGHT 10
DEFAULT_CHAR 0
FONT_DESCENT 5
FONT_ASCENT 13
ENDPROPERTIES

CHARS 152

STARTCHAR space
ENCODING 32
SWIDTH 566 0
DWIDTH 11 0
BBX 1 1 0 0
BITMAP
00
ENDCHAR

STARTCHAR exclam
ENCODING 33
SWIDTH 566 0
DWIDTH 11 0
BBX 5 12 4 0
BITMAP
38
38
38
70
70
60
60
C0
C0
00
C0
C0
ENDCHAR

STARTCHAR quotedbl
ENCODING 34
SWIDTH 566 0
DWIDTH 11 0
BBX 7 6 3 6
BITMAP
66
66
66
CC
CC
CC
ENDCHAR

STARTCHAR numbersign
ENCODING 35
SWIDTH 566 0
DWIDTH 11 0
BBX 11 14 1 -1
BITMAP
0360
0360
06C0
06C0
3FE0
7FC0
1B00
1B00
7FC0
FF80
3600
3600
6C00
6C00
ENDCHAR

STARTCHAR dollar
ENCODING 36
SWIDTH 566 0
DWIDTH 11 0
BBX 10 15 1 -2
BITMAP
0180
0180
07C0
1FC0
38C0
3000
3C00
1F00
0780
0180
C380
FF00
FE00
3000
3000
ENDCHAR

STARTCHAR percent
ENCODING 37
SWIDTH 566 0
DWIDTH 11 0
BBX 9 12 2 0
BITMAP
3800
6C00
CC00
D800
7380
0C00
3000
EE00
1B00
3300
3600
1C00
ENDCHAR

STARTCHAR ampersand
ENCODING 38
SWIDTH 566 0
DWIDTH 11 0
BBX 9 10 1 0
BITMAP
0F00
1F80
3180
3000
3000
7B80
CF00
CE00
FF00
7380
ENDCHAR

STARTCHAR quoteright
ENCODING 39
SWIDTH 566 0
DWIDTH 11 0
BBX 4 6 5 6
BITMAP
30
30
70
60
C0
80
ENDCHAR

STARTCHAR parenleft
ENCODING 40
SWIDTH 566 0
DWIDTH 11 0
BBX 7 15 4 -3
BITMAP
06
0C
18
30
60
60
C0
C0
C0
C0
C0
C0
C0
60
60
ENDCHAR

STARTCHAR parenright
ENCODING 41
SWIDTH 566 0
DWIDTH 11 0
BBX 7 15 1 -3
BITMAP
0C
0C
06
06
06
06
06
06
06
0C
0C
18
30
60
C0
ENDCHAR

STARTCHAR asterisk
ENCODING 42
SWIDTH 566 0
DWIDTH 11 0
BBX 9 8 2 4
BITMAP
0C00
0C00
7F80
7F80
1C00
7600
E700
C300
ENDCHAR

STARTCHAR plus
ENCODING 43
SWIDTH 566 0
DWIDTH 11 0
BBX 10 10 1 0
BITMAP
0600
0600
0C00
0C00
FFC0
FFC0
1800
1800
3000
3000
ENDCHAR

STARTCHAR comma
ENCODING 44
SWIDTH 566 0
DWIDTH 11 0
BBX 4 6 2 -4
BITMAP
30
30
70
60
C0
80
ENDCHAR

STARTCHAR minus
ENCODING 45
SWIDTH 566 0
DWIDTH 11 0
BBX 9 2 1 4
BITMAP
FF80
FF80
ENDCHAR

STARTCHAR period
ENCODING 46
SWIDTH 566 0
DWIDTH 11 0
BBX 2 2 4 0
BITMAP
C0
C0
ENDCHAR

STARTCHAR slash
ENCODING 47
SWIDTH 566 0
DWIDTH 11 0
BBX 14 16 0 -3
BITMAP
000C
0018
0030
0060
0060
00C0
0180
0300
0300
0600
0C00
1800
1800
3000
6000
C000
ENDCHAR

STARTCHAR zero
ENCODING 48
SWIDTH 566 0
DWIDTH 11 0
BBX 9 12 2 0
BITMAP
0F00
1F80
3980
3180
6180
6380
E300
C300
C700
CE00
FC00
7800
ENDCHAR

STARTCHAR one
ENCODING 49
SWIDTH 566 0
DWIDTH 11 0
BBX 8 12 1 0
BITMAP
03
3F
3E
06
06
0C
0C
0C
18
18
FF
FF
ENDCHAR

STARTCHAR two
ENCODING 50
SWIDTH 566 0
DWIDTH 11 0
BBX 10 12 1 0
BITMAP
0780
1FC0
38C0
30C0
01C0
0380
0700
1C00
3800
7000
FF00
FF00
ENDCHAR

STARTCHAR three
ENCODING 51
SWIDTH 566 0
DWIDTH 11 0
BBX 10 12 1 0
BITMAP
0780
1FC0
18C0
01C0
0380
1E00
1F00
0300
0300
C700
FE00
7C00
ENDCHAR

STARTCHAR four
ENCODING 52
SWIDTH 566 0
DWIDTH 11 0
BBX 9 12 1 0
BITMAP
0180
0380
0780
0D80
1B00
3300
6300
FF80
FF80
0600
1F00
1F00
ENDCHAR

STARTCHAR five
ENCODING 53
SWIDTH 566 0
DWIDTH 11 0
BBX 10 12 1 0
BITMAP
0FC0
0FC0
1800
1800
3F00
3F80
3180
0180
0380
C700
FE00
7C00
ENDCHAR

STARTCHAR six
ENCODING 54
SWIDTH 566 0
DWIDTH 11 0
BBX 10 12 1 0
BITMAP
03C0
0FC0
1C00
3000
6E00
7F00
E380
C180
C180
E380
7F00
3E00
ENDCHAR

STARTCHAR seven
ENCODING 55
SWIDTH 566 0
DWIDTH 11 0
BBX 9 12 3 0
BITMAP
7F80
FF80
C300
0600
0600
0C00
1800
1800
3000
3000
6000
6000
ENDCHAR

STARTCHAR eight
ENCODING 56
SWIDTH 566 0
DWIDTH 11 0
BBX 10 12 1 0
BITMAP
0780
1FC0
30C0
30C0
3180
1F00
3F00
6180
C180
C300
7F00
3C00
ENDCHAR

STARTCHAR nine
ENCODING 57
SWIDTH 566 0
DWIDTH 11 0
BBX 10 12 1 0
BITMAP
0780
1FC0
38C0
30C0
60C0
6180
7F80
3D80
0300
0700
FE00
F800
ENDCHAR

STARTCHAR colon
ENCODING 58
SWIDTH 566 0
DWIDTH 11 0
BBX 3 8 4 0
BITMAP
60
60
00
00
00
00
C0
C0
ENDCHAR

STARTCHAR semicolon
ENCODING 59
SWIDTH 566 0
DWIDTH 11 0
BBX 5 11 2 -3
BITMAP
18
18
00
00
00
00
30
70
60
C0
80
ENDCHAR

STARTCHAR less
ENCODING 60
SWIDTH 566 0
DWIDTH 11 0
BBX 11 9 1 1
BITMAP
01E0
0780
1E00
7800
E000
7800
1E00
0780
01C0
ENDCHAR

STARTCHAR equal
ENCODING 61
SWIDTH 566 0
DWIDTH 11 0
BBX 11 6 0 2
BITMAP
7FE0
7FE0
0000
0000
FFC0
FFC0
ENDCHAR

STARTCHAR greater
ENCODING 62
SWIDTH 566 0
DWIDTH 11 0
BBX 11 9 0 1
BITMAP
7000
3C00
0F00
03C0
00E0
03C0
0F00
3C00
F000
ENDCHAR

STARTCHAR question
ENCODING 63
SWIDTH 566 0
DWIDTH 11 0
BBX 7 11 4 0
BITMAP
7C
FE
C6
0E
3C
70
E0
C0
00
C0
C0
ENDCHAR

STARTCHAR at
ENCODING 64
SWIDTH 566 0
DWIDTH 11 0
BBX 10 13 1 -1
BITMAP
0780
18C0
30C0
67C0
6D80
6D80
D980
DB00
DF40
CF80
C000
6300
3C00
ENDCHAR

STARTCHAR A
ENCODING 65
SWIDTH 566 0
DWIDTH 11 0
BBX 12 11 0 0
BITMAP
0FC0
0FC0
02C0
06C0
0CC0
0CC0
1FC0
3FC0
30C0
F9F0
F9F0
ENDCHAR

STARTCHAR B
ENCODING 66
SWIDTH 566 0
DWIDTH 11 0
BBX 11 11 0 0
BITMAP
3FC0
3FE0
0C60
0C60
1FE0
1FC0
3060
3060
30E0
FFC0
FF80
ENDCHAR

STARTCHAR C
ENCODING 67
SWIDTH 566 0
DWIDTH 11 0
BBX 11 11 1 0
BITMAP
0F60
3FE0
70C0
60C0
C000
C000
C000
C000
E180
7F80
3E00
ENDCHAR

STARTCHAR D
ENCODING 68
SWIDTH 566 0
DWIDTH 11 0
BBX 11 11 0 0
BITMAP
3F80
3FC0
1860
1860
3060
3060
3060
60C0
61C0
FF80
FE00
ENDCHAR

STARTCHAR E
ENCODING 69
SWIDTH 566 0
DWIDTH 11 0
BBX 12 11 0 0
BITMAP
3FF0
3FF0
0C60
1B60
1F00
1F00
3300
30C0
30C0
FFC0
FFC0
ENDCHAR

STARTCHAR F
ENCODING 70
SWIDTH 566 0
DWIDTH 11 0
BBX 12 11 0 0
BITMAP
3FF0
3FF0
0C60
1B60
1F00
1F00
3300
3000
3000
FE00
FE00
ENDCHAR

STARTCHAR G
ENCODING 71
SWIDTH 566 0
DWIDTH 11 0
BBX 11 11 1 0
BITMAP
0F60
3FE0
70C0
60C0
C000
C000
C7C0
C7C0
E180
7F80
3E00
ENDCHAR

STARTCHAR H
ENCODING 72
SWIDTH 566 0
DWIDTH 11 0
BBX 12 11 0 0
BITMAP
3CF0
3CF0
1860
1860
1FC0
3FC0
30C0
6180
6180
F3C0
F3C0
ENDCHAR

STARTCHAR I
ENCODING 73
SWIDTH 566 0
DWIDTH 11 0
BBX 10 11 1 0
BITMAP
3FC0
3FC0
0600
0600
0C00
0C00
0C00
1800
1800
FF00
FF00
ENDCHAR

STARTCHAR J
ENCODING 74
SWIDTH 566 0
DWIDTH 11 0
BBX 12 11 0 0
BITMAP
07F0
07F0
00C0
00C0
0180
0180
6180
6300
C300
FE00
7C00
ENDCHAR

STARTCHAR K
ENCODING 75
SWIDTH 566 0
DWIDTH 11 0
BBX 12 11 0 0
BITMAP
3DF0
3DF0
18C0
1980
3300
3E00
3E00
6700
6380
F9E0
F9E0
ENDCHAR

STARTCHAR L
ENCODING 76
SWIDTH 566 0
DWIDTH 11 0
BBX 11 11 0 0
BITMAP
3F00
3F00
0C00
0C00
1800
1800
1860
3060
30C0
FFC0
FF80
ENDCHAR

STARTCHAR M
ENCODING 77
SWIDTH 566 0
DWIDTH 11 0
BBX 13 11 0 0
BITMAP
3838
3878
1860
38E0
3DE0
3760
3760
66C0
60C0
FBE0
FBE0
ENDCHAR

STARTCHAR N
ENCODING 78
SWIDTH 566 0
DWIDTH 11 0
BBX 12 11 0 0
BITMAP
39F0
39F0
1C60
1C60
34C0
36C0
36C0
6380
6380
FB80
FB80
ENDCHAR

STARTCHAR O
ENCODING 79
SWIDTH 566 0
DWIDTH 11 0
BBX 10 11 1 0
BITMAP
0F00
3F80
71C0
60C0
C0C0
C0C0
C0C0
C180
E380
7F00
3C00
ENDCHAR

STARTCHAR P
ENCODING 80
SWIDTH 566 0
DWIDTH 11 0
BBX 11 11 0 0
BITMAP
3FC0
3FE0
1860
1860
30E0
3FC0
3F80
6000
6000
FC00
FC00
ENDCHAR

STARTCHAR Q
ENCODING 81
SWIDTH 566 0
DWIDTH 11 0
BBX 10 13 1 -2
BITMAP
0F00
3F80
71C0
60C0
C0C0
C0C0
C0C0
C180
E380
7F00
3C80
FF00
CE00
ENDCHAR

STARTCHAR R
ENCODING 82
SWIDTH 566 0
DWIDTH 11 0
BBX 12 11 0 0
BITMAP
3FC0
3FE0
1860
1860
30E0
3FC0
3F00
6380
61C0
FCF0
FCF0
ENDCHAR

STARTCHAR S
ENCODING 83
SWIDTH 566 0
DWIDTH 11 0
BBX 10 11 1 0
BITMAP
0EC0
3FC0
7180
7180
3C00
1F00
0780
6180
6380
FF00
DE00
ENDCHAR

STARTCHAR T
ENCODING 84
SWIDTH 566 0
DWIDTH 11 0
BBX 11 11 1 0
BITMAP
7FE0
7FE0
6660
C6C0
CCC0
0C00
0C00
1800
1800
FF00
FF00
ENDCHAR

STARTCHAR U
ENCODING 85
SWIDTH 566 0
DWIDTH 11 0
BBX 11 11 1 0
BITMAP
7DE0
7DE0
30C0
60C0
6180
6180
C180
C300
E700
7E00
3C00
ENDCHAR

STARTCHAR V
ENCODING 86
SWIDTH 566 0
DWIDTH 11 0
BBX 12 11 1 0
BITMAP
F9F0
F9F0
6060
60C0
3180
3180
3300
3600
1E00
1C00
1800
ENDCHAR

STARTCHAR W
ENCODING 87
SWIDTH 566 0
DWIDTH 11 0
BBX 12 11 1 0
BITMAP
F9F0
F9F0
6060
6660
6EC0
CEC0
DEC0
F780
E780
C300
C300
ENDCHAR

STARTCHAR X
ENCODING 88
SWIDTH 566 0
DWIDTH 11 0
BBX 12 11 0 0
BITMAP
3CF0
3CF0
18C0
1980
0F00
0E00
1E00
3300
6180
F3C0
F3C0
ENDCHAR

STARTCHAR Y
ENCODING 89
SWIDTH 566 0
DWIDTH 11 0
BBX 10 11 2 0
BITMAP
F3C0
F3C0
6180
6300
3600
3C00
1800
3000
3000
FC00
FC00
ENDCHAR

STARTCHAR Z
ENCODING 90
SWIDTH 566 0
DWIDTH 11 0
BBX 10 11 1 0
BITMAP
3FC0
3FC0
6180
6300
0600
0C00
1800
3180
6180
FF00
FF00
ENDCHAR

STARTCHAR bracketleft
ENCODING 91
SWIDTH 566 0
DWIDTH 11 0
BBX 8 15 3 -3
BITMAP
0F
0F
18
18
18
30
30
30
60
60
60
C0
C0
F0
F0
ENDCHAR

STARTCHAR backslash
ENCODING 92
SWIDTH 566 0
DWIDTH 11 0
BBX 5 16 4 -3
BITMAP
C0
C0
C0
C0
60
60
60
60
30
30
30
30
18
18
18
18
ENDCHAR

STARTCHAR bracketright
ENCODING 93
SWIDTH 566 0
DWIDTH 11 0
BBX 8 15 1 -3
BITMAP
1F
1F
03
03
06
06
06
0C
0C
0C
18
18
18
F0
F0
ENDCHAR

STARTCHAR asciicircum
ENCODING 94
SWIDTH 566 0
DWIDTH 11 0
BBX 8 7 2 5
BITMAP
06
0E
1E
33
63
C3
C3
ENDCHAR

STARTCHAR underscore
ENCODING 95
SWIDTH 566 0
DWIDTH 11 0
BBX 11 2 0 -4
BITMAP
FFE0
FFE0
ENDCHAR

STARTCHAR quoteleft
ENCODING 96
SWIDTH 566 0
DWIDTH 11 0
BBX 4 6 6 6
BITMAP
C0
C0
E0
60
30
10
ENDCHAR

STARTCHAR a
ENCODING 97
SWIDTH 566 0
DWIDTH 11 0
BBX 10 9 0 0
BITMAP
0F80
3FC0
30C0
00C0
3FC0
FF80
C180
FFC0
7DC0
ENDCHAR

STARTCHAR b
ENCODING 98
SWIDTH 566 0
DWIDTH 11 0
BBX 11 12 0 0
BITMAP
3800
3800
1800
3780
3FC0
38E0
3060
6060
6060
70C0
FFC0
EF00
ENDCHAR

STARTCHAR c
ENCODING 99
SWIDTH 566 0
DWIDTH 11 0
BBX 10 9 1 0
BITMAP
0EC0
3FC0
7180
6180
C000
C000
E180
7F80
3E00
ENDCHAR

STARTCHAR d
ENCODING 100
SWIDTH 566 0
DWIDTH 11 0
BBX 11 12 0 0
BITMAP
00E0
00E0
0060
0F60
3FC0
71C0
60C0
C0C0
C180
E380
7FC0
3DC0
ENDCHAR

STARTCHAR e
ENCODING 101
SWIDTH 566 0
DWIDTH 11 0
BBX 10 9 0 0
BITMAP
0F00
3F80
70C0
60C0
FFC0
FFC0
C000
7F80
3F80
ENDCHAR

STARTCHAR f
ENCODING 102
SWIDTH 566 0
DWIDTH 11 0
BBX 11 12 1 0
BITMAP
03E0
0FE0
0C00
7F80
7F80
1800
1800
3800
3000
3000
FF00
FF00
ENDCHAR

STARTCHAR g
ENCODING 103
SWIDTH 566 0
DWIDTH 11 0
BBX 12 13 0 -4
BITMAP
0F70
3FE0
71C0
60C0
C0C0
C1C0
E380
7F80
3D80
0300
0700
7E00
7C00
ENDCHAR

STARTCHAR h
ENCODING 104
SWIDTH 566 0
DWIDTH 11 0
BBX 10 12 0 0
BITMAP
3800
3800
1800
3780
3FC0
38C0
30C0
60C0
6180
6180
F3C0
F3C0
ENDCHAR

STARTCHAR i
ENCODING 105
SWIDTH 566 0
DWIDTH 11 0
BBX 8 12 1 0
BITMAP
06
06
00
3C
3C
0C
0C
0C
18
18
FF
FF
ENDCHAR

STARTCHAR j
ENCODING 106
SWIDTH 566 0
DWIDTH 11 0
BBX 10 16 0 -4
BITMAP
0180
0180
0000
3FC0
3FC0
0180
0180
0180
0300
0300
0300
0300
0600
0600
FC00
F800
ENDCHAR

STARTCHAR k
ENCODING 107
SWIDTH 566 0
DWIDTH 11 0
BBX 11 12 0 0
BITMAP
3800
3800
1800
19E0
33E0
3700
3E00
3C00
6E00
6700
E3C0
E3C0
ENDCHAR

STARTCHAR l
ENCODING 108
SWIDTH 566 0
DWIDTH 11 0
BBX 8 12 1 0
BITMAP
1E
1E
06
06
0C
0C
0C
18
18
18
FF
FF
ENDCHAR

STARTCHAR m
ENCODING 109
SWIDTH 566 0
DWIDTH 11 0
BBX 12 9 0 0
BITMAP
7B60
7FF0
3BB0
3330
3330
6660
6660
F770
F770
ENDCHAR

STARTCHAR n
ENCODING 110
SWIDTH 566 0
DWIDTH 11 0
BBX 10 9 0 0
BITMAP
7B80
7FC0
38C0
30C0
30C0
6180
6180
F3C0
F3C0
ENDCHAR

STARTCHAR o
ENCODING 111
SWIDTH 566 0
DWIDTH 11 0
BBX 11 9 0 0
BITMAP
0F80
3FC0
70E0
6060
C060
C0C0
E1C0
7F80
3E00
ENDCHAR

STARTCHAR p
ENCODING 112
SWIDTH 566 0
DWIDTH 11 0
BBX 12 13 0 -4
BITMAP
3DC0
3FE0
1C70
1830
1830
3030
3860
3FE0
3780
6000
6000
F800
F800
ENDCHAR

STARTCHAR q
ENCODING 113
SWIDTH 566 0
DWIDTH 11 0
BBX 12 13 0 -4
BITMAP
0F70
3FF0
71C0
60C0
C0C0
C180
E380
7F80
3D80
0300
0300
0F80
0F80
ENDCHAR

STARTCHAR r
ENCODING 114
SWIDTH 566 0
DWIDTH 11 0
BBX 11 9 0 0
BITMAP
7DC0
7FE0
1C60
1800
1800
3000
3000
FF00
FF00
ENDCHAR

STARTCHAR s
ENCODING 115
SWIDTH 566 0
DWIDTH 11 0
BBX 11 9 0 0
BITMAP
0F60
1FE0
30C0
3C00
1F00
6780
6180
FF80
DF00
ENDCHAR

STARTCHAR t
ENCODING 116
SWIDTH 566 0
DWIDTH 11 0
BBX 9 12 1 0
BITMAP
1800
1800
1800
FF80
FF80
3000
3000
6000
6180
6180
7F00
3E00
ENDCHAR

STARTCHAR u
ENCODING 117
SWIDTH 566 0
DWIDTH 11 0
BBX 9 9 1 0
BITMAP
E380
E380
6180
6180
C300
C300
C700
FF80
7B80
ENDCHAR

STARTCHAR v
ENCODING 118
SWIDTH 566 0
DWIDTH 11 0
BBX 11 9 1 0
BITMAP
F1E0
F1E0
60C0
6180
3300
3600
3E00
1C00
1800
ENDCHAR

STARTCHAR w
ENCODING 119
SWIDTH 566 0
DWIDTH 11 0
BBX 12 9 0 0
BITMAP
F8F0
F8F0
6660
6660
6EC0
3AC0
3BC0
3180
3180
ENDCHAR

STARTCHAR x
ENCODING 120
SWIDTH 566 0
DWIDTH 11 0
BBX 13 9 0 0
BITMAP
7CF8
7CF8
18E0
0D80
0700
0F00
3980
FBE0
FBE0
ENDCHAR

STARTCHAR y
ENCODING 121
SWIDTH 566 0
DWIDTH 11 0
BBX 12 13 0 -4
BITMAP
7CF0
7CF0
3060
18C0
0D80
0F80
0700
0600
0C00
1800
3000
FC00
FC00
ENDCHAR

STARTCHAR z
ENCODING 122
SWIDTH 566 0
DWIDTH 11 0
BBX 9 9 1 0
BITMAP
3F80
7F80
6700
0E00
1C00
3800
7180
FF80
FF00
ENDCHAR

STARTCHAR braceleft
ENCODING 123
SWIDTH 566 0
DWIDTH 11 0
BBX 7 15 3 -3
BITMAP
0E
18
18
30
30
30
C0
60
60
60
60
C0
C0
C0
70
ENDCHAR

STARTCHAR bar
ENCODING 124
SWIDTH 566 0
DWIDTH 11 0
BBX 7 16 3 -4
BITMAP
06
06
06
0C
0C
0C
18
18
18
30
30
30
60
60
60
C0
ENDCHAR

STARTCHAR braceright
ENCODING 125
SWIDTH 566 0
DWIDTH 11 0
BBX 7 15 1 -3
BITMAP
0C
06
06
06
0C
0C
06
0C
18
18
18
18
30
30
E0
ENDCHAR

STARTCHAR asciitilde
ENCODING 126
SWIDTH 566 0
DWIDTH 11 0
BBX 8 3 2 4
BITMAP
73
FF
DE
ENDCHAR

STARTCHAR cent
ENCODING 162
SWIDTH 566 0
DWIDTH 11 0
BBX 8 12 2 0
BITMAP
0C
0C
1F
7F
63
C0
C0
C3
FE
7C
30
30
ENDCHAR

STARTCHAR sterling
ENCODING 163
SWIDTH 566 0
DWIDTH 11 0
BBX 10 11 0 0
BITMAP
0F80
1FC0
18C0
1800
1800
7E00
7E00
3000
60C0
FFC0
FF80
ENDCHAR

STARTCHAR currency
ENCODING 164
SWIDTH 566 0
DWIDTH 11 0
BBX 10 9 1 1
BITMAP
30C0
3FC0
3F80
6180
6180
6180
7F00
FF00
C300
ENDCHAR

STARTCHAR yen
ENCODING 165
SWIDTH 566 0
DWIDTH 11 0
BBX 10 11 2 0
BITMAP
F3C0
F3C0
6180
6300
3600
7F00
1800
FE00
3000
FC00
FC00
ENDCHAR

STARTCHAR brokenbar
ENCODING 166
SWIDTH 566 0
DWIDTH 11 0
BBX 6 14 3 -3
BITMAP
0C
0C
0C
18
18
18
00
00
60
60
60
C0
C0
C0
ENDCHAR

STARTCHAR section
ENCODING 167
SWIDTH 566 0
DWIDTH 11 0
BBX 11 14 0 -2
BITMAP
03E0
0EE0
18C0
1C00
3F00
3380
31C0
38C0
1CC0
0F80
0380
6300
E700
FE00
ENDCHAR

STARTCHAR dieresis
ENCODING 168
SWIDTH 566 0
DWIDTH 11 0
BBX 6 2 4 9
BITMAP
CC
CC
ENDCHAR

STARTCHAR copyright
ENCODING 169
SWIDTH 566 0
DWIDTH 11 0
BBX 12 12 0 0
BITMAP
0780
1FE0
3860
6730
6FB0
D9B0
D830
DF60
CE60
60C0
7F80
1E00
ENDCHAR

STARTCHAR multiply
ENCODING 170
SWIDTH 566 0
DWIDTH 11 0
BBX 11 10 1 0
BITMAP
2040
70E0
39C0
1F80
0F00
1E00
3F00
7380
E1C0
4080
ENDCHAR

STARTCHAR guillemotleft
ENCODING 171
SWIDTH 566 0
DWIDTH 11 0
BBX 9 6 1 1
BITMAP
1980
3300
6600
CC00
6600
3300
ENDCHAR

STARTCHAR logicalnot
ENCODING 172
SWIDTH 566 0
DWIDTH 11 0
BBX 9 5 1 3
BITMAP
FF80
FF80
0300
0600
0600
ENDCHAR

STARTCHAR hyphen
ENCODING 173
SWIDTH 566 0
DWIDTH 11 0
BBX 9 2 1 4
BITMAP
FF80
FF80
ENDCHAR

STARTCHAR registered
ENCODING 174
SWIDTH 566 0
DWIDTH 11 0
BBX 12 12 0 0
BITMAP
0780
1FE0
3860
6F30
6DB0
CDB0
DE30
DB60
FB60
61C0
7F80
1E00
ENDCHAR

STARTCHAR macron
ENCODING 175
SWIDTH 566 0
DWIDTH 11 0
BBX 5 2 4 9
BITMAP
F8
F8
ENDCHAR

STARTCHAR degree
ENCODING 176
SWIDTH 566 0
DWIDTH 11 0
BBX 6 6 4 6
BITMAP
38
44
84
84
88
70
ENDCHAR

STARTCHAR plusminus
ENCODING 177
SWIDTH 566 0
DWIDTH 11 0
BBX 11 10 0 0
BITMAP
0300
0300
7FE0
7FE0
0600
0C00
0C00
0000
FFC0
FFC0
ENDCHAR

STARTCHAR twosuperior
ENCODING 178
SWIDTH 566 0
DWIDTH 11 0
BBX 7 8 3 4
BITMAP
3C
66
06
0C
38
60
C4
FC
ENDCHAR

STARTCHAR threesuperior
ENCODING 179
SWIDTH 566 0
DWIDTH 11 0
BBX 7 8 2 4
BITMAP
3C
66
46
18
0C
8C
CC
78
ENDCHAR

STARTCHAR acute
ENCODING 180
SWIDTH 566 0
DWIDTH 11 0
BBX 4 3 5 9
BITMAP
30
60
C0
ENDCHAR

STARTCHAR mu
ENCODING 181
SWIDTH 566 0
DWIDTH 11 0
BBX 10 13 0 -4
BITMAP
71C0
71C0
30C0
30C0
6180
6180
6380
7FC0
FDC0
C000
C000
C000
C000
ENDCHAR

STARTCHAR paragraph
ENCODING 182
SWIDTH 566 0
DWIDTH 11 0
BBX 11 13 2 -1
BITMAP
3FE0
6680
C480
C580
CD00
EB00
7A00
1600
1400
3400
2C00
2800
FE00
ENDCHAR

STARTCHAR periodcentered
ENCODING 183
SWIDTH 566 0
DWIDTH 11 0
BBX 2 3 5 4
BITMAP
C0
C0
C0
ENDCHAR

STARTCHAR cedilla
ENCODING 184
SWIDTH 566 0
DWIDTH 11 0
BBX 4 5 2 -5
BITMAP
20
70
30
F0
E0
ENDCHAR

STARTCHAR onesuperior
ENCODING 185
SWIDTH 566 0
DWIDTH 11 0
BBX 6 8 3 4
BITMAP
18
78
18
10
10
30
30
FC
ENDCHAR

STARTCHAR divide
ENCODING 186
SWIDTH 566 0
DWIDTH 11 0
BBX 8 10 2 0
BITMAP
0C
0C
00
00
FF
FF
00
00
30
30
ENDCHAR

STARTCHAR guillemotright
ENCODING 187
SWIDTH 566 0
DWIDTH 11 0
BBX 9 6 1 1
BITMAP
6600
3300
1980
3300
6600
CC00
ENDCHAR

STARTCHAR onequarter
ENCODING 188
SWIDTH 566 0
DWIDTH 11 0
BBX 13 12 0 0
BITMAP
1800
7818
1830
1060
10D0
31B0
3370
FEA0
0D60
1BF0
3060
60F0
ENDCHAR

STARTCHAR onehalf
ENCODING 189
SWIDTH 566 0
DWIDTH 11 0
BBX 13 12 0 0
BITMAP
1800
7818
1830
1060
10F0
31D8
3318
FE30
0CE0
1980
3310
63F0
ENDCHAR

STARTCHAR threequarters
ENCODING 190
SWIDTH 566 0
DWIDTH 11 0
BBX 13 12 0 0
BITMAP
3C00
6618
4630
1860
0CD0
8DB0
CF70
7EA0
0D60
1BF0
3060
60F0
ENDCHAR

STARTCHAR dblunderscore
ENCODING 223
SWIDTH 566 0
DWIDTH 11 0
BBX 11 8 0 -4
BITMAP
0000
0000
FFE0
FFE0
0000
0000
FFE0
FFE0
ENDCHAR

STARTCHAR aleph
ENCODING 224
SWIDTH 566 0
DWIDTH 11 0
BBX 11 12 0 -2
BITMAP
1980
19E0
1DE0
1C60
36C0
3780
3300
6380
79C0
78C0
0000
0000
ENDCHAR

STARTCHAR beth
ENCODING 225
SWIDTH 566 0
DWIDTH 11 0
BBX 10 11 0 0
BITMAP
0000
0C00
0F80
0FC0
00C0
00C0
0180
0180
0300
7FC0
7FC0
ENDCHAR

STARTCHAR gimmel
ENCODING 226
SWIDTH 566 0
DWIDTH 11 0
BBX 11 11 0 0
BITMAP
0000
0C00
0F80
0F80
0180
0180
0380
0780
0D80
39C0
30C0
ENDCHAR

STARTCHAR daleth
ENCODING 227
SWIDTH 566 0
DWIDTH 11 0
BBX 11 11 0 0
BITMAP
0000
3000
3FE0
3FE0
0180
0300
0300
0300
0600
0600
0600
ENDCHAR

STARTCHAR he
ENCODING 228
SWIDTH 566 0
DWIDTH 11 0
BBX 11 11 0 0
BITMAP
0000
1800
1FC0
1FE0
0060
30C0
30C0
30C0
6180
6180
6180
ENDCHAR

STARTCHAR waw
ENCODING 229
SWIDTH 566 0
DWIDTH 11 0
BBX 9 11 1 0
BITMAP
0000
1800
1F00
1F00
0300
0600
0600
0600
0C00
0C00
0C00
ENDCHAR

STARTCHAR zayin
ENCODING 230
SWIDTH 566 0
DWIDTH 11 0
BBX 9 11 1 0
BITMAP
0000
3000
3F80
3F80
0600
0C00
0C00
0C00
1800
1800
1800
ENDCHAR

STARTCHAR het
ENCODING 231
SWIDTH 566 0
DWIDTH 11 0
BBX 11 11 0 0
BITMAP
0000
1800
1FC0
1FE0
1860
30C0
30C0
30C0
6180
6180
6180
ENDCHAR

STARTCHAR teth
ENCODING 232
SWIDTH 566 0
DWIDTH 11 0
BBX 11 11 0 -1
BITMAP
61C0
33E0
3260
3060
6060
60C0
60C0
C1C0
FF80
7F00
0000
ENDCHAR

STARTCHAR yod
ENCODING 233
SWIDTH 566 0
DWIDTH 11 0
BBX 8 9 2 1
BITMAP
60
7C
7E
06
06
0C
18
00
00
ENDCHAR

STARTCHAR kaphfinal
ENCODING 234
SWIDTH 566 0
DWIDTH 11 0
BBX 11 14 0 -3
BITMAP
0000
3000
3FC0
3FE0
0060
00C0
00C0
00C0
0180
0180
0180
0300
0300
0300
ENDCHAR

STARTCHAR kaph
ENCODING 235
SWIDTH 566 0
DWIDTH 11 0
BBX 10 11 0 0
BITMAP
0000
1800
1F00
1F80
01C0
00C0
00C0
0180
0380
7F00
7E00
ENDCHAR

STARTCHAR lamed
ENCODING 236
SWIDTH 566 0
DWIDTH 11 0
BBX 10 13 0 -1
BITMAP
1800
1800
3000
3F80
3FC0
00C0
00C0
0180
0380
0700
0E00
1C00
0000
ENDCHAR

STARTCHAR memfinal
ENCODING 237
SWIDTH 566 0
DWIDTH 11 0
BBX 11 11 0 -1
BITMAP
6000
7FC0
7FE0
3060
3060
60C0
60C0
60C0
FF80
FF80
0000
ENDCHAR

STARTCHAR mem
ENCODING 238
SWIDTH 566 0
DWIDTH 11 0
BBX 11 11 0 -1
BITMAP
6000
73C0
3FE0
1C60
1860
30C0
60C0
6180
CF80
CF00
0000
ENDCHAR

STARTCHAR nunfinal
ENCODING 239
SWIDTH 566 0
DWIDTH 11 0
BBX 8 14 2 -4
BITMAP
30
3E
3E
06
06
0C
0C
0C
18
18
18
30
30
00
ENDCHAR

STARTCHAR nun
ENCODING 240
SWIDTH 566 0
DWIDTH 11 0
BBX 9 11 1 0
BITMAP
0000
0C00
0F80
0F80
0180
0180
0300
0300
0600
FE00
FC00
ENDCHAR

STARTCHAR samekh
ENCODING 241
SWIDTH 566 0
DWIDTH 11 0
BBX 11 11 0 0
BITMAP
0000
6000
7FC0
7FE0
30E0
30C0
61C0
6180
C380
FF00
7C00
ENDCHAR

STARTCHAR ayin
ENCODING 242
SWIDTH 566 0
DWIDTH 11 0
BBX 10 13 1 -3
BITMAP
3180
39C0
39C0
18C0
18C0
18C0
1980
1B80
0F00
1E00
7800
6000
0000
ENDCHAR

STARTCHAR pefinal
ENCODING 243
SWIDTH 566 0
DWIDTH 11 0
BBX 11 14 0 -4
BITMAP
0C00
0FC0
1FE0
3060
3060
38C0
1CC0
08C0
0180
0180
0180
0300
0300
0000
ENDCHAR

STARTCHAR pe
ENCODING 244
SWIDTH 566 0
DWIDTH 11 0
BBX 11 11 0 -1
BITMAP
0C00
0FC0
1FE0
3060
3060
38C0
10C0
01C0
7F80
7F00
0000
ENDCHAR

STARTCHAR zadikfinal
ENCODING 245
SWIDTH 566 0
DWIDTH 11 0
BBX 11 14 0 -4
BITMAP
6180
79E0
79E0
1860
30C0
31C0
3F80
7E00
6000
6000
C000
C000
C000
0000
ENDCHAR

STARTCHAR zadik
ENCODING 246
SWIDTH 566 0
DWIDTH 11 0
BBX 11 11 0 -1
BITMAP
7180
79E0
19E0
1C60
0EC0
0780
0300
0380
7F80
7F80
0000
ENDCHAR

STARTCHAR kof
ENCODING 247
SWIDTH 566 0
DWIDTH 11 0
BBX 11 14 0 -3
BITMAP
0000
3000
3FC0
3FE0
0060
00E0
30C0
31C0
6380
6F00
6C00
C000
C000
C000
ENDCHAR

STARTCHAR resh
ENCODING 248
SWIDTH 566 0
DWIDTH 11 0
BBX 11 11 0 -1
BITMAP
3000
3F80
3FC0
00C0
00C0
0180
0180
0180
0300
0300
0000
ENDCHAR

STARTCHAR shin
ENCODING 249
SWIDTH 566 0
DWIDTH 11 0
BBX 11 11 0 -1
BITMAP
4440
EEE0
6660
6660
6CC0
CCC0
CCC0
D980
FF80
FF00
0000
ENDCHAR

STARTCHAR taf
ENCODING 250
SWIDTH 566 0
DWIDTH 11 0
BBX 11 11 0 0
BITMAP
0000
1800
1FC0
1FE0
0C60
0CC0
18C0
18C0
1980
F180
F180
ENDCHAR
ENDFONT
